{"title":"Oxford.Street.Revealed.S01E02.HDTV.XviD-AFG","uid":11888615,"size":255226062,"categoryP":"video","categoryS":"tv_shows","magnet":"?xt=urn:btih:0e17df7b7f8429ab36b86eae6034e8cea1facf2b&amp;dn=Oxford.Street.Revealed.S01E02.HDTV.XviD-AFG&amp;tr=udp%3A%2F%2Ftracker.openbittorrent.com%3A80&amp;tr=udp%3A%2F%2Fopen.demonii.com%3A1337&amp;tr=udp%3A%2F%2Ftracker.coppersurfer.tk%3A6969&amp;tr=udp%3A%2F%2Fexodus.desync.com%3A6969","seeders":1,"leechers":0,"uploader":"toots2boots","files":2,"time":1430921676,"description":"Oxford Street Revealed S01E02. London's iconic Fashion and Retail Center.\nOxford Street Revealed: Oxford Street Revealed is a documentary series that takes a look at what keeps the workers, residents and shoppers going.\n\n\nGeneral\nComplete name                            : G:Torrent uploadOxford StOxford.Street.Revealed.S01E02.HDTV.XviD-AFGOxford.Street.Revealed.S01E02.HDTV.XviD-AFG.avi\nFormat                                   : AVI\nFormat/Info                              : Audio Video Interleave\nFile size                                : 243 MiB\nDuration                                 : 28mn 58s\nOverall bit rate mode                    : Variable\nOverall bit rate                         : 1 174 Kbps\n\nVideo\nID                                       : 0\nFormat                                   : MPEG-4 Visual\nFormat profile                           : Advanced Simple@L5\nFormat settings, BVOP                    : 2\nFormat settings, QPel                    : No\nFormat settings, GMC                     : No warppoints\nFormat settings, Matrix                  : Default (H.263)\nCodec ID                                 : XVID\nCodec ID/Hint                            : XviD\nDuration                                 : 28mn 58s\nBit rate                                 : 1 033 Kbps\nWidth                                    : 640 pixels\nHeight                                   : 360 pixels\nDisplay aspect ratio                     : 16:9\nFrame rate                               : 25.000 fps\nColor space                              : YUV\nChroma subsampling                       : 4:2:0\nBit depth                                : 8 bits\nScan type                                : Progressive\nCompression mode                         : Lossy\nBits/(Pixel*Frame)                       : 0.179\nStream size                              : 214 MiB (88%)\nWriting library                          : XviD 64\n\nAudio\nID                                       : 1\nFormat                                   : MPEG Audio\nFormat version                           : Version 1\nFormat profile                           : Layer 3\nMode                                     : Joint stereo\nMode extension                           : MS Stereo\nCodec ID                                 : 55\nCodec ID/Hint                            : MP3\nDuration                                 : 28mn 58s\nBit rate mode                            : Variable\nBit rate                                 : 128 Kbps\nChannel(s)                               : 2 channels\nSampling rate                            : 48.0 KHz\nCompression mode                         : Lossy\nStream size                              : 26.5 MiB (11%)\nAlignment                                : Aligned on interleaves\nInterleave, duration                     : 24 ms (0.60 video frame)\nInterleave, preload duration             : 178 ms\nTitle                                    : Oxford.Street.Revealed.S01E02.HDTV.XviD-AFG_360p.audio","torrent":{"xt":"urn:btih:0e17df7b7f8429ab36b86eae6034e8cea1facf2b","amp;dn":"Oxford.Street.Revealed.S01E02.HDTV.XviD-AFG","amp;tr":["udp%3A%2F%2Ftracker.openbittorrent.com%3A80","udp%3A%2F%2Fopen.demonii.com%3A1337","udp%3A%2F%2Ftracker.coppersurfer.tk%3A6969","udp%3A%2F%2Fexodus.desync.com%3A6969"],"infoHash":"0e17df7b7f8429ab36b86eae6034e8cea1facf2b","infoHashBuffer":{"type":"Buffer","data":[14,23,223,123,127,132,41,171,54,184,110,174,96,52,232,206,161,250,207,43]},"announce":[],"urlList":[]}}